<svg width="520" height="340" viewBox="0 0 520 340" fill="none" xmlns="http://www.w3.org/2000/svg">
  <rect width="520" height="340" rx="28" fill="#0A1221"/>
  <rect x="18" y="18" width="484" height="44" rx="16" fill="#121E35"/>
  <circle cx="42" cy="40" r="5" fill="#FF6B6B"/>
  <circle cx="60" cy="40" r="5" fill="#F4C95D"/>
  <circle cx="78" cy="40" r="5" fill="#4DD6B9"/>
  <rect x="34" y="88" width="200" height="198" rx="22" fill="#131F39"/>
  <rect x="52" y="108" width="92" height="10" rx="5" fill="#8295FF"/>
  <rect x="52" y="132" width="156" height="10" rx="5" fill="#516582"/>
  <rect x="52" y="156" width="136" height="10" rx="5" fill="#516582"/>
  <rect x="52" y="190" width="164" height="34" rx="17" fill="url(#accent)"/>
  <rect x="258" y="88" width="228" height="92" rx="22" fill="url(#panel)"/>
  <rect x="258" y="194" width="228" height="92" rx="22" fill="#131F39"/>
  <defs>
    <linearGradient id="accent" x1="52" y1="190" x2="216" y2="224" gradientUnits="userSpaceOnUse">
      <stop stop-color="#8C92FF"/>
      <stop offset="1" stop-color="#63CBFF"/>
    </linearGradient>
    <linearGradient id="panel" x1="258" y1="88" x2="486" y2="180" gradientUnits="userSpaceOnUse">
      <stop stop-color="#8595FF"/>
      <stop offset="1" stop-color="#70E0FF"/>
    </linearGradient>
  </defs>
</svg>
