<svg width="1280" height="980" viewBox="0 0 1280 980" fill="none" xmlns="http://www.w3.org/2000/svg">
  <rect width="1280" height="980" rx="36" fill="#07111F"/>
  <rect x="36" y="36" width="1208" height="908" rx="30" fill="url(#bg)"/>
  <rect x="70" y="70" width="1140" height="70" rx="22" fill="#101B32" stroke="#243455"/>
  <circle cx="110" cy="105" r="8" fill="#FF6B6B"/>
  <circle cx="138" cy="105" r="8" fill="#F4C95D"/>
  <circle cx="166" cy="105" r="8" fill="#55D6BE"/>
  <rect x="206" y="88" width="198" height="34" rx="17" fill="#182642"/>
  <rect x="890" y="88" width="132" height="34" rx="17" fill="#182642"/>
  <rect x="1038" y="88" width="132" height="34" rx="17" fill="url(#accent)"/>

  <rect x="70" y="170" width="444" height="706" rx="30" fill="#0F1830" stroke="#25385D"/>
  <rect x="102" y="206" width="160" height="18" rx="9" fill="#8198FF"/>
  <rect x="102" y="238" width="260" height="14" rx="7" fill="#41557F"/>
  <rect x="102" y="282" width="380" height="222" rx="26" fill="#121F3A"/>
  <rect x="124" y="312" width="210" height="14" rx="7" fill="#7E8DFF"/>
  <rect x="124" y="344" width="324" height="12" rx="6" fill="#4A5B82"/>
  <rect x="124" y="368" width="342" height="12" rx="6" fill="#4A5B82"/>
  <rect x="124" y="392" width="302" height="12" rx="6" fill="#4A5B82"/>
  <rect x="124" y="434" width="330" height="44" rx="22" fill="url(#accent)"/>
  <rect x="102" y="534" width="184" height="130" rx="24" fill="#121F3A"/>
  <rect x="306" y="534" width="176" height="130" rx="24" fill="#121F3A"/>
  <rect x="102" y="688" width="380" height="156" rx="24" fill="#121F3A"/>
  <rect x="128" y="714" width="112" height="12" rx="6" fill="#6CCFFF"/>
  <rect x="128" y="744" width="318" height="12" rx="6" fill="#47597E"/>
  <rect x="128" y="768" width="286" height="12" rx="6" fill="#47597E"/>
  <rect x="128" y="792" width="236" height="12" rx="6" fill="#47597E"/>

  <rect x="548" y="170" width="662" height="420" rx="30" fill="#0F1830" stroke="#25385D"/>
  <rect x="580" y="202" width="180" height="18" rx="9" fill="#8198FF"/>
  <rect x="580" y="234" width="254" height="14" rx="7" fill="#43557C"/>
  <rect x="580" y="282" width="278" height="266" rx="24" fill="url(#panel)"/>
  <rect x="878" y="282" width="298" height="122" rx="24" fill="#13213C"/>
  <rect x="878" y="426" width="298" height="122" rx="24" fill="#13213C"/>
  <rect x="610" y="314" width="218" height="14" rx="7" fill="#EAF2FF"/>
  <rect x="610" y="344" width="188" height="12" rx="6" fill="#D6E3FF"/>
  <rect x="610" y="374" width="120" height="120" rx="24" fill="#EAF2FF" fill-opacity="0.18"/>
  <rect x="748" y="374" width="80" height="120" rx="24" fill="#EAF2FF" fill-opacity="0.1"/>
  <rect x="904" y="308" width="88" height="88" rx="22" fill="url(#violet)"/>
  <rect x="1010" y="308" width="138" height="16" rx="8" fill="#9FB4FF"/>
  <rect x="1010" y="338" width="126" height="12" rx="6" fill="#536788"/>
  <rect x="1010" y="360" width="112" height="12" rx="6" fill="#536788"/>
  <rect x="904" y="452" width="88" height="70" rx="20" fill="#192A4D"/>
  <rect x="1010" y="452" width="136" height="16" rx="8" fill="#84D9FF"/>
  <rect x="1010" y="482" width="142" height="12" rx="6" fill="#536788"/>
  <rect x="1010" y="504" width="96" height="12" rx="6" fill="#536788"/>

  <rect x="548" y="620" width="316" height="256" rx="30" fill="#0F1830" stroke="#25385D"/>
  <rect x="894" y="620" width="316" height="256" rx="30" fill="#0F1830" stroke="#25385D"/>
  <rect x="580" y="652" width="138" height="18" rx="9" fill="#7CE6FF"/>
  <rect x="926" y="652" width="162" height="18" rx="9" fill="#A58DFF"/>
  <rect x="580" y="694" width="252" height="150" rx="22" fill="#142340"/>
  <rect x="604" y="718" width="204" height="12" rx="6" fill="#E7F2FF"/>
  <rect x="604" y="744" width="164" height="12" rx="6" fill="#536788"/>
  <rect x="604" y="770" width="192" height="12" rx="6" fill="#536788"/>
  <rect x="926" y="694" width="252" height="150" rx="22" fill="#142340"/>
  <rect x="950" y="718" width="184" height="12" rx="6" fill="#E7F2FF"/>
  <rect x="950" y="744" width="154" height="12" rx="6" fill="#536788"/>
  <rect x="950" y="770" width="214" height="12" rx="6" fill="#536788"/>

  <defs>
    <linearGradient id="bg" x1="95" y1="56" x2="1160" y2="922" gradientUnits="userSpaceOnUse">
      <stop stop-color="#0C142A"/>
      <stop offset="1" stop-color="#101B36"/>
    </linearGradient>
    <linearGradient id="accent" x1="1038" y1="88" x2="1170" y2="122" gradientUnits="userSpaceOnUse">
      <stop stop-color="#8C92FF"/>
      <stop offset="1" stop-color="#60C8FF"/>
    </linearGradient>
    <linearGradient id="panel" x1="580" y1="282" x2="858" y2="548" gradientUnits="userSpaceOnUse">
      <stop stop-color="#8393FF"/>
      <stop offset="1" stop-color="#6AE0FF"/>
    </linearGradient>
    <linearGradient id="violet" x1="904" y1="308" x2="992" y2="396" gradientUnits="userSpaceOnUse">
      <stop stop-color="#AB8DFF"/>
      <stop offset="1" stop-color="#6CCFFF"/>
    </linearGradient>
  </defs>
</svg>
