<svg width="1600" height="900" viewBox="0 0 1600 900" fill="none" xmlns="http://www.w3.org/2000/svg">
  <rect width="1600" height="900" rx="36" fill="#08121F"/>
  <rect x="28" y="28" width="1544" height="844" rx="30" fill="url(#bg)"/>
  <rect x="56" y="56" width="1488" height="66" rx="20" fill="#101B31" stroke="#253351"/>
  <circle cx="94" cy="89" r="7" fill="#FF6B6B"/>
  <circle cx="120" cy="89" r="7" fill="#F3C969"/>
  <circle cx="146" cy="89" r="7" fill="#4ED7B8"/>
  <rect x="188" y="72" width="228" height="34" rx="17" fill="#182744"/>
  <rect x="1188" y="72" width="132" height="34" rx="17" fill="#182744"/>
  <rect x="1338" y="72" width="170" height="34" rx="17" fill="url(#accent)"/>

  <rect x="56" y="154" width="410" height="676" rx="28" fill="#0F1830" stroke="#233454"/>
  <rect x="88" y="188" width="160" height="16" rx="8" fill="#8198FF"/>
  <rect x="88" y="218" width="248" height="12" rx="6" fill="#46597F"/>
  <rect x="88" y="260" width="346" height="170" rx="22" fill="#131F39"/>
  <rect x="112" y="286" width="180" height="12" rx="6" fill="#EAF2FF"/>
  <rect x="112" y="310" width="250" height="10" rx="5" fill="#556987"/>
  <rect x="112" y="332" width="228" height="10" rx="5" fill="#556987"/>
  <rect x="112" y="370" width="196" height="36" rx="18" fill="url(#accent)"/>
  <rect x="88" y="462" width="164" height="150" rx="22" fill="#131F39"/>
  <rect x="270" y="462" width="164" height="150" rx="22" fill="#131F39"/>
  <rect x="88" y="636" width="346" height="162" rx="22" fill="#131F39"/>
  <rect x="114" y="662" width="102" height="10" rx="5" fill="#8CE7FF"/>
  <rect x="114" y="686" width="278" height="10" rx="5" fill="#556987"/>
  <rect x="114" y="708" width="246" height="10" rx="5" fill="#556987"/>
  <rect x="114" y="730" width="218" height="10" rx="5" fill="#556987"/>

  <rect x="502" y="154" width="1042" height="320" rx="28" fill="#0F1830" stroke="#233454"/>
  <rect x="538" y="188" width="180" height="16" rx="8" fill="#8198FF"/>
  <rect x="538" y="218" width="260" height="12" rx="6" fill="#46597F"/>
  <rect x="538" y="258" width="482" height="178" rx="24" fill="url(#panel)"/>
  <rect x="1048" y="258" width="458" height="84" rx="24" fill="#13213C"/>
  <rect x="1048" y="352" width="458" height="84" rx="24" fill="#13213C"/>
  <rect x="572" y="290" width="220" height="12" rx="6" fill="#F0F6FF"/>
  <rect x="572" y="318" width="164" height="10" rx="5" fill="#D8E5FF"/>
  <rect x="572" y="348" width="146" height="58" rx="18" fill="#F0F6FF" fill-opacity="0.18"/>
  <rect x="740" y="348" width="106" height="58" rx="18" fill="#F0F6FF" fill-opacity="0.14"/>
  <rect x="868" y="348" width="118" height="58" rx="18" fill="#F0F6FF" fill-opacity="0.1"/>
  <rect x="1080" y="284" width="112" height="40" rx="16" fill="url(#violet)"/>
  <rect x="1210" y="286" width="236" height="12" rx="6" fill="#9FB4FF"/>
  <rect x="1210" y="310" width="194" height="10" rx="5" fill="#5B6F92"/>
  <rect x="1080" y="378" width="112" height="40" rx="16" fill="#182B4B"/>
  <rect x="1210" y="380" width="214" height="12" rx="6" fill="#8DE5FF"/>
  <rect x="1210" y="404" width="164" height="10" rx="5" fill="#5B6F92"/>

  <rect x="502" y="510" width="490" height="320" rx="28" fill="#0F1830" stroke="#233454"/>
  <rect x="538" y="542" width="190" height="16" rx="8" fill="#7FE2FF"/>
  <rect x="538" y="574" width="288" height="12" rx="6" fill="#46597F"/>
  <rect x="538" y="618" width="418" height="176" rx="24" fill="#131F39"/>
  <rect x="564" y="646" width="164" height="12" rx="6" fill="#F0F6FF"/>
  <rect x="564" y="672" width="278" height="10" rx="5" fill="#556987"/>
  <rect x="564" y="694" width="246" height="10" rx="5" fill="#556987"/>
  <rect x="564" y="726" width="150" height="40" rx="20" fill="url(#accent)"/>

  <rect x="1026" y="510" width="518" height="320" rx="28" fill="#0F1830" stroke="#233454"/>
  <rect x="1062" y="542" width="220" height="16" rx="8" fill="#B39CFF"/>
  <rect x="1062" y="574" width="328" height="12" rx="6" fill="#46597F"/>
  <rect x="1062" y="618" width="230" height="176" rx="24" fill="#131F39"/>
  <rect x="1310" y="618" width="198" height="84" rx="24" fill="#131F39"/>
  <rect x="1310" y="710" width="198" height="84" rx="24" fill="#131F39"/>

  <defs>
    <linearGradient id="bg" x1="112" y1="40" x2="1470" y2="846" gradientUnits="userSpaceOnUse">
      <stop stop-color="#0B1428"/>
      <stop offset="1" stop-color="#111B35"/>
    </linearGradient>
    <linearGradient id="accent" x1="1338" y1="72" x2="1508" y2="106" gradientUnits="userSpaceOnUse">
      <stop stop-color="#8D92FF"/>
      <stop offset="1" stop-color="#60C9FF"/>
    </linearGradient>
    <linearGradient id="panel" x1="538" y1="258" x2="986" y2="436" gradientUnits="userSpaceOnUse">
      <stop stop-color="#8794FF"/>
      <stop offset="1" stop-color="#6DE1FF"/>
    </linearGradient>
    <linearGradient id="violet" x1="1080" y1="284" x2="1192" y2="324" gradientUnits="userSpaceOnUse">
      <stop stop-color="#AE8FFF"/>
      <stop offset="1" stop-color="#74D3FF"/>
    </linearGradient>
  </defs>
</svg>
